PathFileType	4	(X/Y/Z)	c:/Users/goper/Files/vsCode/490R/osim_files/A06/A06_Static.trc
DataRate	CameraRate	NumFrames	NumMarkers	Units                	OrigDataRate	OrigDataStartFrame	OrigNumFrames
120.00	120.00	8	36	mm	120.0	822	1315
                Frame#	Time	LPSIS			LASIS			LTH1			LTH2			LTH3			LTH4			LLFE			LMFE			LSH1			LSH2			LSH3			LSH4			LLMAL			LMMAL			LCAL			LMTP5			LTOE			LMTP1			RPSIS			RASIS			RTH1			RTH2			RTH3			RTH4			RLFE			RMFE			RSH1			RSH2			RSH3			RSH4			RLMAL			RMMAL			RCAL			RMTP1			RTOE			RMTP5		
		X1	Y1	Z1	X2	Y2	Z2	X3	Y3	Z3	X4	Y4	Z4	X5	Y5	Z5	X6	Y6	Z6	X7	Y7	Z7	X8	Y8	Z8	X9	Y9	Z9	X10	Y10	Z10	X11	Y11	Z11	X12	Y12	Z12	X13	Y13	Z13	X14	Y14	Z14	X15	Y15	Z15	X16	Y16	Z16	X17	Y17	Z17	X18	Y18	Z18	X19	Y19	Z19	X20	Y20	Z20	X21	Y21	Z21	X22	Y22	Z22	X23	Y23	Z23	X24	Y24	Z24	X25	Y25	Z25	X26	Y26	Z26	X27	Y27	Z27	X28	Y28	Z28	X29	Y29	Z29	X30	Y30	Z30	X31	Y31	Z31	X32	Y32	Z32	X33	Y33	Z33	X34	Y34	Z34	X35	Y35	Z35	X36	Y36	Z36

822	6.84167	-303.20288	984.53015	427.28308	-116.54594	949.05096	347.52310	-215.91222	598.47711	299.45499	-211.93504	555.97620	304.19046	-152.92093	594.36755	314.66785	-160.37828	552.32782	316.79199	-194.19342	479.95129	321.55316	-197.19835	469.67395	429.52591	-260.78012	389.63638	303.76105	-255.91426	344.08722	296.45337	-198.53958	389.16553	309.84235	-201.47949	347.20474	304.61072	-253.93123	92.60373	333.38525	-235.32690	110.76791	416.43063	-314.77246	77.79729	383.53784	-134.66095	42.27706	312.59326	-94.18076	62.81131	367.84601	-118.12121	55.34388	407.31552	-292.22757	995.46625	558.39038	-117.05014	953.30432	611.22565	-245.81319	601.09869	649.88361	-244.35596	558.32678	650.77643	-183.39519	597.08099	641.84680	-190.03978	553.10974	646.72626	-228.88556	439.88678	630.53381	-228.90550	437.83817	541.44360	-262.46259	286.06137	623.87305	-265.52026	238.52983	624.30750	-203.43047	277.67627	612.19293	-214.54550	230.66731	618.51416	-280.50958	102.54334	638.60754	-267.72202	101.49006	555.28723	-338.06558	81.03817	592.47034	-136.52130	53.94737	562.24438	-120.84724	65.18670	602.35272	-147.66943	51.64114	650.02936
823	6.85000	-303.27325	984.51923	427.31879	-116.59541	949.04755	347.52484	-215.91927	598.47986	299.46301	-211.96320	555.96826	304.20203	-152.93568	594.36298	314.67337	-160.38394	552.33667	316.79980	-194.19836	479.95599	321.55780	-197.14429	469.72150	429.50589	-260.77505	389.61673	303.74725	-255.90871	344.06503	296.46771	-198.52965	389.15762	309.83478	-201.49593	347.17920	304.61890	-253.92468	92.58624	333.36948	-235.30487	110.78281	416.40933	-314.74725	77.78202	383.53580	-134.64328	42.30115	312.56857	-94.35686	62.69284	367.93140	-118.09500	55.36197	407.28766	-292.25528	995.48242	558.37274	-117.03174	953.34790	611.21240	-245.80109	601.10345	649.88892	-244.36546	558.32971	650.76556	-183.39542	597.11151	641.83173	-190.00977	553.16101	646.69244	-228.84698	439.90463	630.52997	-228.95665	437.83246	541.44116	-262.45441	286.07526	623.86157	-265.51413	238.53732	624.31146	-203.30493	277.72256	612.50647	-214.50800	230.69424	618.48785	-280.49341	102.52945	638.59387	-267.73035	101.48402	555.27649	-338.07074	81.05299	592.41351	-136.51880	53.95284	562.24554	-120.85475	65.19083	602.35577	-147.65648	51.67881	649.98322
824	6.85833	-302.54257	984.18591	427.38162	-116.64946	949.06262	347.54745	-215.92876	598.47144	299.46942	-211.95883	555.96063	304.22031	-152.96709	594.37238	314.70312	-160.40546	552.32300	316.82855	-194.18799	479.95956	321.57584	-197.10500	469.81357	429.46417	-260.78162	389.61734	303.77274	-255.93202	344.06195	296.49664	-198.53059	389.15479	309.84695	-201.49632	347.18265	304.63507	-253.94861	92.58141	333.38629	-235.28929	110.85291	416.34521	-314.77219	77.79081	383.55829	-134.64569	42.35439	312.53879	-94.33720	62.78452	367.89050	-118.05523	55.47738	407.26160	-292.36465	995.55237	558.34302	-117.04991	953.41388	611.20532	-245.85657	601.12140	649.88159	-242.81895	557.31775	651.96918	-183.34744	597.14709	641.55389	-190.00989	553.24188	646.66071	-228.91788	439.95483	630.50671	-228.97716	437.83340	541.45947	-262.46954	286.10434	623.84979	-265.55423	238.57750	624.29919	-203.37016	277.81470	612.09851	-214.51720	230.73697	618.47101	-280.52872	102.58207	638.54486	-267.73874	101.48250	555.28314	-338.15088	81.14577	592.32391	-136.54318	53.96867	562.26190	-120.85785	65.20634	602.35468	-147.64275	51.73186	649.95306
825	6.86667	-302.58170	984.15533	427.41501	-116.72073	949.05780	347.56741	-215.94736	598.47003	299.48648	-211.98953	555.95038	304.24069	-152.96388	594.37158	314.72006	-160.40460	552.34576	316.85770	-194.18616	479.94586	321.60645	-197.05307	469.85474	429.45203	-260.79663	389.60092	303.80344	-255.90511	344.06647	296.48523	-198.51329	389.15710	309.87155	-201.49858	347.17505	304.64081	-253.93156	92.57011	333.38959	-235.26880	110.89352	416.34393	-314.79379	77.77900	383.55328	-134.63214	42.40088	312.53287	-94.31407	62.84829	367.86343	-118.02300	55.54031	407.21301	-292.43576	995.61017	558.31342	-117.03663	953.46149	611.18542	-245.88388	601.18341	649.83997	-244.47160	558.39270	650.73407	-183.40170	597.26172	641.77155	-189.99170	553.29462	646.65161	-228.95020	439.96902	630.48822	-229.00435	437.82297	541.46069	-262.49573	286.12830	623.81293	-265.56915	238.60612	624.26996	-203.36234	277.88602	612.09039	-214.48665	230.79964	618.43054	-280.48077	102.63914	638.51007	-267.74118	101.48799	555.29407	-338.14813	81.19078	592.31641	-136.49124	53.99415	562.25623	-120.86764	65.21472	602.37323	-147.63155	51.74108	649.94946
826	6.87500	-302.64084	984.16278	427.42569	-116.79160	949.05334	347.58548	-215.95064	598.46021	299.49197	-211.97986	555.93976	304.26373	-152.95033	594.38281	314.74170	-160.38773	552.33679	316.87506	-194.16362	479.94244	321.60928	-197.04018	469.85681	429.47147	-260.76324	389.61313	303.80307	-255.91217	344.06381	296.49515	-198.49599	389.15582	309.88278	-201.47218	347.18549	304.64798	-253.98503	92.57760	333.39624	-235.26810	110.87988	416.34256	-314.79178	77.77987	383.56406	-134.64349	42.38809	312.54001	-94.30584	62.85998	367.89221	-118.01452	55.54654	407.20593	-292.48648	995.58441	558.32013	-117.09073	953.44238	611.19672	-245.91692	601.12891	649.89001	-244.47746	558.38416	650.74695	-183.45265	597.23492	641.78845	-190.02797	553.27692	646.65277	-228.96452	439.95865	630.49756	-229.03983	437.82089	541.46698	-262.50674	286.10138	623.82764	-265.57120	238.59494	624.26343	-203.28709	277.83417	612.46356	-214.48946	230.79732	618.43475	-280.47299	102.62945	638.50787	-267.75354	101.48142	555.30017	-338.10715	81.15768	592.30017	-136.50464	54.00389	562.25769	-120.85464	65.23338	602.37262	-147.60753	51.74126	649.95258
827	6.88333	-302.72961	984.15674	427.44751	-116.86818	949.04712	347.59378	-215.95813	598.43939	299.51202	-211.94249	555.91724	304.27747	-152.97495	594.36633	314.77069	-160.36800	552.34381	316.89572	-194.15115	479.94839	321.62790	-197.09068	469.77676	429.49417	-260.78574	389.58038	303.83054	-255.90015	344.05838	296.51456	-198.46681	389.13275	309.88910	-201.43823	347.17081	304.66107	-253.97018	92.56165	333.37924	-235.29189	110.81570	416.38052	-314.77448	77.75054	383.56790	-134.64238	42.37210	312.55307	-94.31544	62.79497	367.92245	-118.07398	55.45416	407.27014	-292.49200	995.49738	558.40680	-117.19755	953.39288	611.25079	-246.01308	601.11304	649.88135	-242.94356	557.27301	652.01776	-183.47623	597.12433	641.60583	-190.10481	553.23718	646.70410	-228.99016	439.91809	630.53815	-229.07501	437.82132	541.47064	-262.51965	286.05548	623.85632	-265.59033	238.52927	624.30798	-203.33534	277.79337	612.48834	-214.57344	230.71754	618.47870	-280.49915	102.56767	638.57867	-267.73514	101.47301	555.29462	-338.11456	81.09428	592.36603	-136.51476	53.98330	562.25305	-120.87566	65.20676	602.37390	-147.65414	51.68895	649.98730
828	6.89167	-302.76825	984.13263	427.47983	-116.93665	949.06171	347.59457	-215.96231	598.42609	299.52225	-211.92584	555.89136	304.29318	-152.97185	594.36719	314.77716	-160.36250	552.32556	316.91144	-194.13980	479.94196	321.64569	-197.15060	469.70453	429.54742	-260.74191	389.57587	303.82520	-255.88054	344.04028	296.52194	-198.44385	389.12671	309.89462	-201.43071	347.15005	304.67123	-253.97929	92.56853	333.38876	-235.33971	110.76022	416.42932	-314.79807	77.73537	383.56955	-134.66533	42.33121	312.58160	-94.36711	62.73187	367.96606	-118.12069	55.40976	407.30789	-292.52625	995.42676	558.49030	-117.29443	953.35779	611.27655	-246.00809	601.01770	649.97119	-242.97391	557.20856	651.92102	-183.03670	595.98907	642.77264	-190.18269	553.17029	646.74573	-229.01775	439.87097	630.58752	-229.10251	437.84537	541.48322	-262.56042	286.04135	623.90314	-265.60071	238.50829	624.36261	-203.38982	277.73126	612.53168	-214.58809	230.70404	618.50336	-280.49649	102.53210	638.62073	-267.77158	101.47305	555.29779	-338.07413	81.00747	592.45026	-136.54582	53.98204	562.25232	-120.85806	65.22314	602.36145	-147.67323	51.65244	649.99023
829	6.90000	-302.85291	984.12756	427.47855	-117.02208	949.05719	347.61249	-215.96654	598.41608	299.53226	-211.94014	555.86542	304.30554	-152.96852	594.37628	314.79611	-160.37537	552.33441	316.93781	-194.13319	479.95319	321.66827	-197.16533	469.71051	429.58395	-260.74072	389.57364	303.84872	-255.88455	344.04364	296.52921	-198.44997	389.10861	309.90683	-201.41339	347.15637	304.67191	-253.99805	92.56736	333.39471	-235.36813	110.76358	416.43192	-314.81897	77.73825	383.57843	-134.69902	42.33435	312.59262	-94.39014	62.74426	367.97699	-118.14635	55.40462	407.30194	-292.64905	995.42664	558.51501	-117.39752	953.36035	611.29761	-246.13988	601.03632	649.98108	-243.05756	557.22601	651.92371	-183.09662	596.01294	642.78369	-190.25696	553.18170	646.77264	-229.08583	439.87915	630.59332	-229.13948	437.84015	541.48535	-262.62088	286.04877	623.91028	-265.67081	238.51082	624.35834	-203.45700	277.72870	612.55896	-214.63931	230.68506	618.51898	-280.55368	102.53481	638.61267	-267.78204	101.47996	555.29852	-338.10831	81.01815	592.44946	-136.54561	53.98640	562.24274	-120.87516	65.23843	602.36798	-147.69533	51.66376	650.00946
